<?xml version="1.0" encoding="iso-8859-1"?>
<!-- Generator: Adobe Illustrator 19.0.0, SVG Export Plug-In . SVG Version: 6.00 Build 0)  -->
<svg version="1.1" id="Layer_1" xmlns="http://www.w3.org/2000/svg" fill="#16bcdc" xmlns:xlink="http://www.w3.org/1999/xlink" x="0px" y="0px"
	 viewBox="0 0 504.446 504.446" style="enable-background:new 0 0 504.446 504.446;" xml:space="preserve">
<g>
	<g>
		<path d="M227.462,49.521c-3.357-4.197-7.554-8.393-12.59-12.59c-4.197-3.357-8.393-6.715-11.751-9.233
			c-2.518-1.679-4.197-2.518-5.036-3.357c-7.554-5.036-15.948-9.233-24.341-12.59c-12.59-5.036-25.18-7.554-38.61-9.233
			c-8.393-1.679-15.948-1.679-20.984-1.679c-0.839,0-0.839,0-0.839,0c-40.289,0-67.148,14.269-82.256,40.289
			c-10.911,17.626-14.269,36.931-14.269,60.433s3.357,42.807,13.43,60.433c15.108,26.02,41.967,40.289,83.095,40.289
			c5.875,0,13.43,0,21.823-0.839c13.43-1.679,26.02-5.036,38.61-9.233c8.393-3.357,16.787-7.554,24.341-12.59
			c0.839-0.839,2.518-1.679,5.036-3.357c4.197-2.518,8.393-5.875,11.751-9.233c5.036-4.197,9.233-8.393,12.59-12.59
			c5.036-5.875,7.554-10.911,7.554-16.787V66.308C235.016,60.433,232.498,55.397,227.462,49.521z M218.229,136.813
			c0,0.839-0.839,3.357-3.357,6.715s-5.875,6.715-10.072,10.072c-3.357,2.518-7.554,5.875-10.911,8.393
			c-2.518,1.679-4.197,2.518-5.036,3.357c-6.715,4.197-13.43,8.393-20.984,10.911c-10.911,4.197-22.662,6.715-34.413,8.393
			c-8.393,0.839-14.269,0.839-19.305,0.839c-36.092,0-57.075-11.751-68.826-31.895c-9.233-14.269-11.751-31.056-11.751-52.039
			c0-20.984,2.518-37.771,11.751-52.039c11.751-20.144,32.734-31.895,67.987-31.895c0,0,0,0,0.839,0c5.036,0,10.911,0,19.305,0.839
			c11.751,1.679,23.502,4.197,34.413,8.393c7.554,3.357,14.269,6.715,20.144,10.911c1.679,0.839,3.357,2.518,5.875,4.197
			c3.357,2.518,7.554,5.875,10.911,8.393c4.197,3.357,7.554,6.715,10.072,10.072c2.518,2.518,3.357,5.036,3.357,5.875V136.813z"/>
	</g>
</g>
<g>
	<g>
		<path d="M94.007,183.816c-41.967-6.715-57.915-33.574-59.593-73.862c-0.839-5.036-4.197-8.393-9.233-8.393
			s-8.393,3.357-8.393,8.393v321.469c0,5.875,2.518,11.751,6.715,15.948s10.072,6.715,15.948,6.715h38.61
			c5.875,0,11.751-2.518,15.948-6.715c4.197-4.197,6.715-10.072,6.715-15.948V192.21C100.721,188.013,97.364,184.656,94.007,183.816
			z M83.934,431.423c0,1.679-0.839,3.357-1.679,4.197c-0.839,0.839-2.518,1.679-4.197,1.679h-38.61
			c-1.679,0-3.357-0.839-4.197-1.679c-0.839-0.839-1.679-2.518-1.679-4.197V167.869c10.911,15.108,26.859,26.02,50.361,31.056
			V431.423z"/>
	</g>
</g>
<g>
	<g>
		<path d="M75.541,437.298H41.967c-5.036,0-8.393,3.357-8.393,8.393v50.361c0,5.036,3.357,8.393,8.393,8.393h33.574
			c5.036,0,8.393-3.357,8.393-8.393v-50.361C83.934,440.656,80.577,437.298,75.541,437.298z M67.148,487.659H50.361v-33.574h16.787
			V487.659z"/>
	</g>
</g>
<g>
	<g>
		<path d="M473.39,40.289C458.282,14.269,431.423,0,390.295,0c-5.875,0-13.429,0-21.823,0.839
			c-13.429,1.679-26.02,5.036-38.61,9.233c-8.393,3.357-16.787,7.554-23.502,12.59c-1.679,2.518-3.357,3.357-5.875,5.036
			c-4.197,2.518-8.393,5.875-11.751,9.233c-5.036,4.197-9.233,8.393-12.59,12.59c-5.036,5.875-7.554,10.911-7.554,16.787v70.505
			c0,5.875,2.518,10.911,7.554,16.787c3.357,4.197,7.554,8.393,12.59,12.59c4.197,3.357,8.393,6.715,11.751,9.233
			c2.518,1.679,4.197,3.357,5.875,3.357c6.715,5.036,15.108,9.233,23.502,12.59c12.59,5.036,25.18,7.554,38.61,9.233
			c8.393,0.839,15.948,1.679,21.823,0.839c0.839,0,0.839,0,0.839,0c40.289,0,67.148-14.269,82.256-40.289
			c10.072-17.626,13.43-36.931,13.43-60.433S483.462,57.915,473.39,40.289z M458.282,153.6
			c-11.751,20.144-33.574,31.895-67.987,31.895c0,0,0,0-0.839,0c-5.036,0-10.911,0-19.305-0.839
			c-11.751-1.679-23.502-4.197-34.413-8.393c-7.554-3.357-14.269-6.715-20.144-10.911c-1.679-0.839-3.357-1.679-5.036-3.357
			c-3.357-2.518-7.554-5.875-10.911-8.393c-4.197-3.357-7.554-6.715-10.072-10.072s-3.357-5.036-3.357-6.715V66.308
			c0-0.839,0.839-3.357,3.357-6.715c2.518-3.357,5.875-6.715,10.072-10.072c3.357-2.518,7.554-5.875,10.911-8.393
			c2.518-1.679,4.197-2.518,5.036-3.357c5.875-4.197,12.59-7.554,20.144-10.911c10.911-4.197,22.662-6.715,34.413-8.393
			c8.393-0.839,14.269-0.839,19.305-0.839c36.092,0,57.075,11.751,68.826,31.895c8.393,14.269,11.751,31.056,11.751,52.039
			C470.033,122.544,467.515,139.331,458.282,153.6z"/>
	</g>
</g>
<g>
	<g>
		<path d="M479.266,101.561c-5.875,0-9.233,3.357-9.233,8.393c-1.679,40.289-17.626,67.148-59.593,73.862
			c-4.197,0.839-6.715,4.197-6.715,8.393v239.213c0,5.875,2.518,11.751,6.715,15.948s10.072,6.715,15.948,6.715h38.61
			c5.875,0,11.751-2.518,15.948-6.715s6.715-10.072,6.715-15.948V109.954C487.659,104.918,484.302,101.561,479.266,101.561z
			 M470.033,431.423c0,1.679-0.839,3.357-1.679,4.197c-0.839,0.839-2.518,1.679-4.197,1.679h-38.61
			c-1.679,0-3.357-0.839-4.197-1.679c-0.839-0.839-1.679-2.518-1.679-4.197V198.925c23.502-5.036,39.449-15.948,50.361-31.895
			V431.423z"/>
	</g>
</g>
<g>
	<g>
		<path d="M461.639,437.298h-33.574c-5.036,0-8.393,3.357-8.393,8.393v50.361c0,5.036,3.357,8.393,8.393,8.393h33.574
			c5.036,0,8.393-3.357,8.393-8.393v-50.361C470.033,440.656,466.675,437.298,461.639,437.298z M453.246,487.659h-16.787v-33.574
			h16.787V487.659z"/>
	</g>
</g>
<g>
	<g>
		<path d="M428.066,93.167h-33.574c-5.036,0-8.393,3.357-8.393,8.393s3.357,8.393,8.393,8.393h33.574
			c5.036,0,8.393-3.357,8.393-8.393C436.459,97.364,433.102,93.167,428.066,93.167z"/>
	</g>
</g>
<g>
	<g>
		<path d="M117.508,93.167H83.934c-5.036,0-8.393,3.357-8.393,8.393s3.357,8.393,8.393,8.393h33.574
			c5.036,0,8.393-3.357,8.393-8.393C125.902,97.364,122.544,93.167,117.508,93.167z"/>
	</g>
</g>
<g>
</g>
<g>
</g>
<g>
</g>
<g>
</g>
<g>
</g>
<g>
</g>
<g>
</g>
<g>
</g>
<g>
</g>
<g>
</g>
<g>
</g>
<g>
</g>
<g>
</g>
<g>
</g>
<g>
</g>
</svg>
